<svg width="149" height="112" viewBox="0 0 149 112" fill="none" xmlns="http://www.w3.org/2000/svg">
<g filter="url(#filter0_i_47_533)">
<path d="M48.7523 0C46.8349 0 45.2805 1.54847 45.2805 3.45861C45.2805 5.22094 46.611 6.70812 48.3752 6.83902C51.2006 7.04867 53.8013 7.11129 56.2962 7.17136C60.4918 7.27238 64.3885 7.3662 68.553 8.13993C69.3051 8.27967 70.0626 8.38225 70.8234 8.45114V27.6682C65.143 28.4221 60.761 33.2675 60.761 39.1325V45.3012C60.761 45.8943 60.8058 46.4769 60.8923 47.0459C55.5729 49.3976 50.9708 53.0672 47.5036 57.6386H34.8312V50.6988C34.8312 48.5695 33.0985 46.8434 30.961 46.8434C28.8236 46.8434 27.0909 48.5695 27.0909 50.6988V57.6386H19.3506C8.66358 57.6386 0 66.2692 0 76.9157V79.2289C0 89.8754 8.66358 98.506 19.3506 98.506H27.0909V104.289C27.0909 106.418 28.8236 108.145 30.961 108.145C33.0985 108.145 34.8312 106.418 34.8312 104.289V98.506H47.5036C53.7205 106.703 63.586 112 74.6935 112C85.801 112 95.6665 106.703 101.883 98.506H112.234V104.289C112.234 106.418 113.966 108.145 116.104 108.145C118.241 108.145 119.974 106.418 119.974 104.289V98.506H129.649C140.336 98.506 149 89.8754 149 79.2289V76.9157C149 66.2692 140.336 57.6386 129.649 57.6386H119.974V50.6988C119.974 48.5695 118.241 46.8434 116.104 46.8434C113.966 46.8434 112.234 48.5695 112.234 50.6988V57.6386H101.883C98.4949 53.1709 94.0225 49.5647 88.8559 47.2081C88.9592 46.5878 89.013 45.9507 89.013 45.3012V39.1325C89.013 33.135 84.4307 28.2037 78.5636 27.6234V8.12874C79.4013 7.99692 80.2341 7.83824 81.0593 7.65734C85.1255 6.76595 89.1606 6.82736 93.502 6.89343C96.125 6.93335 98.8598 6.97497 101.781 6.8092C103.548 6.70892 104.881 5.2193 104.881 3.45628C104.881 1.54743 103.327 0 101.411 0H48.7523Z" fill="url(#paint0_radial_47_533)"/>
</g>
<g filter="url(#filter1_i_47_533)">
<path fill-rule="evenodd" clip-rule="evenodd" d="M73.5325 5.98652V30.0312L71.1812 30.3433C66.8289 30.921 63.4701 34.6382 63.4701 39.1325V45.3012C63.4701 45.7586 63.5047 46.2063 63.5709 46.6422L63.88 48.6776L61.9912 49.5127C57.0966 51.6766 52.8586 55.055 49.6651 59.2655L48.8521 60.3373H32.1221V50.6988C32.1221 50.06 31.6023 49.5422 30.961 49.5422C30.3198 49.5422 29.8 50.06 29.8 50.6988V60.3373H19.3506C10.1598 60.3373 2.70909 67.7597 2.70909 76.9157V79.2289C2.70909 88.3849 10.1598 95.8072 19.3506 95.8072H29.8V104.289C29.8 104.928 30.3198 105.446 30.961 105.446C31.6023 105.446 32.1221 104.928 32.1221 104.289V95.8072H48.8521L49.6651 96.8791C55.392 104.43 64.4713 109.301 74.6935 109.301C84.9157 109.301 93.995 104.43 99.7219 96.8791L100.535 95.8072H114.943V104.289C114.943 104.928 115.463 105.446 116.104 105.446C116.745 105.446 117.265 104.928 117.265 104.289V95.8072H129.649C138.84 95.8072 146.291 88.3849 146.291 79.2289V76.9157C146.291 67.7597 138.84 60.3373 129.649 60.3373H117.265V50.6988C117.265 50.06 116.745 49.5422 116.104 49.5422C115.463 49.5422 114.943 50.06 114.943 50.6988V60.3373H100.535L99.7219 59.2655C96.601 55.1506 92.4823 51.8304 87.7281 49.6619L85.8443 48.8027L86.1834 46.7665C86.2625 46.2915 86.3039 45.8022 86.3039 45.3012V39.1325C86.3039 34.5361 82.7912 30.7536 78.296 30.309L75.8545 30.0675V5.8228L78.1409 5.463C78.9211 5.34022 79.7007 5.19182 80.4771 5.02161C84.8525 4.06241 89.157 4.12806 93.3985 4.19274L93.5434 4.19495C96.1767 4.23503 98.8175 4.2742 101.627 4.11477C101.873 4.10079 102.171 3.87641 102.171 3.45628C102.171 3.03794 101.831 2.6988 101.411 2.6988H48.7523C48.3311 2.6988 47.9896 3.03898 47.9896 3.45861C47.9896 3.86899 48.2865 4.12617 48.5764 4.14768C51.3245 4.35159 53.8605 4.41313 56.3617 4.47335L56.4523 4.47553C60.5895 4.57511 64.671 4.67334 69.0497 5.48688C69.7144 5.61038 70.3878 5.70178 71.0686 5.76342L73.5325 5.98652ZM45.2805 3.45861C45.2805 1.54847 46.8349 0 48.7523 0H101.411C103.327 0 104.881 1.54743 104.881 3.45628C104.881 5.2193 103.548 6.70892 101.781 6.8092C98.8598 6.97497 96.125 6.93335 93.502 6.89343C89.1606 6.82736 85.1255 6.76595 81.0593 7.65734C80.2341 7.83824 79.4013 7.99692 78.5636 8.12874V27.6234C84.4307 28.2037 89.013 33.135 89.013 39.1325V45.3012C89.013 45.9507 88.9592 46.5878 88.8559 47.2081C94.0225 49.5647 98.4949 53.1709 101.883 57.6386H112.234V50.6988C112.234 48.5695 113.966 46.8434 116.104 46.8434C118.241 46.8434 119.974 48.5695 119.974 50.6988V57.6386H129.649C140.336 57.6386 149 66.2692 149 76.9157V79.2289C149 89.8754 140.336 98.506 129.649 98.506H119.974V104.289C119.974 106.418 118.241 108.145 116.104 108.145C113.966 108.145 112.234 106.418 112.234 104.289V98.506H101.883C95.6665 106.703 85.801 112 74.6935 112C63.586 112 53.7205 106.703 47.5036 98.506H34.8312V104.289C34.8312 106.418 33.0985 108.145 30.961 108.145C28.8236 108.145 27.0909 106.418 27.0909 104.289V98.506H19.3506C8.66358 98.506 0 89.8754 0 79.2289V76.9157C0 66.2692 8.66358 57.6386 19.3506 57.6386H27.0909V50.6988C27.0909 48.5695 28.8236 46.8434 30.961 46.8434C33.0985 46.8434 34.8312 48.5695 34.8312 50.6988V57.6386H47.5036C50.9708 53.0672 55.5729 49.3976 60.8923 47.0459C60.8058 46.4769 60.761 45.8943 60.761 45.3012V39.1325C60.761 33.2675 65.143 28.4221 70.8234 27.6682V8.45114C70.0626 8.38225 69.3051 8.27967 68.553 8.13993C64.3885 7.3662 60.4918 7.27238 56.2962 7.17136C53.8013 7.11129 51.2006 7.04867 48.3752 6.83902C46.611 6.70812 45.2805 5.22094 45.2805 3.45861Z" fill="black"/>
</g>
<path d="M95.5922 76.7229C95.5922 88.1146 86.3221 97.3494 74.887 97.3494C63.4518 97.3494 54.1818 88.1146 54.1818 76.7229C54.1818 65.3312 63.4518 56.0964 74.887 56.0964C86.3221 56.0964 95.5922 65.3312 95.5922 76.7229Z" fill="black"/>
<path d="M12.578 77.1084C12.578 90.6024 29.4484 93.1084 20.8987 93.1084C12.3491 93.1084 5.41821 86.3765 5.41821 78.0723C5.41821 69.768 12.3491 63.0361 20.8987 63.0361C29.4484 63.0361 12.578 65.3906 12.578 77.1084Z" fill="black"/>
<path d="M136.518 77.1084C136.518 90.6024 119.647 93.1084 128.197 93.1084C136.747 93.1084 143.678 86.3765 143.678 78.0723C143.678 69.768 136.747 63.0361 128.197 63.0361C119.647 63.0361 136.518 65.3906 136.518 77.1084Z" fill="black"/>
<path d="M110.26 83.4699V81.4458L118.639 71.3832L119.026 72.5205H110.415V69.976H121.812V72L113.453 82.0627L113.066 80.9254H122.103V83.4699H110.26Z" fill="white"/>
<path fill-rule="evenodd" clip-rule="evenodd" d="M108.712 85.012V80.8894L114.396 74.0626H108.867V68.4337H119.083L119.216 68.2748L119.27 68.4337H123.36V72.5554L117.688 79.3831H123.651V85.012H113.012L112.877 85.1745L112.822 85.012H108.712ZM122.103 83.4699V80.9253H114.398L121.812 72V69.9759H110.415V72.5205H117.692L110.26 81.4458V83.4699H122.103Z" fill="black"/>
<path d="M24.7301 83.4699V81.4458L33.1089 71.3832L33.4959 72.5205H24.8849V69.976H36.2824V72L27.923 82.0627L27.5359 80.9254H36.5727V83.4699H24.7301Z" fill="white"/>
<path fill-rule="evenodd" clip-rule="evenodd" d="M23.182 85.012V80.8894L28.8664 74.0626H23.3368V68.4337H33.5534L33.6858 68.2748L33.7399 68.4337H37.8304V72.5554L32.1583 79.3831H38.1207V85.012H27.4822L27.3472 85.1745L27.2919 85.012H23.182ZM36.5727 83.4699V80.9253H28.8678L36.2824 72V69.9759H24.8849V72.5205H32.1619L24.7301 81.4458V83.4699H36.5727Z" fill="black"/>
<path d="M73.3004 49.5422V38.5928H68.9658V36.0482H80.7697V38.5928H76.4352V49.5422H73.3004Z" fill="white"/>
<path fill-rule="evenodd" clip-rule="evenodd" d="M71.7523 51.0843V40.1349H67.4177V34.506H82.3177V40.1349H77.9832V51.0843H71.7523ZM76.4351 38.5927H80.7697V36.0482H68.9658V38.5927H73.3003V49.5421H76.4351V38.5927Z" fill="black"/>
<path d="M90.561 76.9157C90.561 85.4329 83.6301 92.3374 75.0805 92.3374C66.5308 92.3374 59.6 85.4329 59.6 76.9157C59.6 68.3985 66.5308 61.494 75.0805 61.494C83.6301 61.494 90.561 68.3985 90.561 76.9157Z" fill="white"/>
<defs>
<filter id="filter0_i_47_533" x="0" y="0" width="153" height="116" filterUnits="userSpaceOnUse" color-interpolation-filters="sRGB">
<feFlood flood-opacity="0" result="BackgroundImageFix"/>
<feBlend mode="normal" in="SourceGraphic" in2="BackgroundImageFix" result="shape"/>
<feColorMatrix in="SourceAlpha" type="matrix" values="0 0 0 0 0 0 0 0 0 0 0 0 0 0 0 0 0 0 127 0" result="hardAlpha"/>
<feOffset dx="4" dy="4"/>
<feGaussianBlur stdDeviation="2"/>
<feComposite in2="hardAlpha" operator="arithmetic" k2="-1" k3="1"/>
<feColorMatrix type="matrix" values="0 0 0 0 0 0 0 0 0 0 0 0 0 0 0 0 0 0 0.25 0"/>
<feBlend mode="normal" in2="shape" result="effect1_innerShadow_47_533"/>
</filter>
<filter id="filter1_i_47_533" x="0" y="0" width="153" height="116" filterUnits="userSpaceOnUse" color-interpolation-filters="sRGB">
<feFlood flood-opacity="0" result="BackgroundImageFix"/>
<feBlend mode="normal" in="SourceGraphic" in2="BackgroundImageFix" result="shape"/>
<feColorMatrix in="SourceAlpha" type="matrix" values="0 0 0 0 0 0 0 0 0 0 0 0 0 0 0 0 0 0 127 0" result="hardAlpha"/>
<feOffset dx="4" dy="4"/>
<feGaussianBlur stdDeviation="2"/>
<feComposite in2="hardAlpha" operator="arithmetic" k2="-1" k3="1"/>
<feColorMatrix type="matrix" values="0 0 0 0 0 0 0 0 0 0 0 0 0 0 0 0 0 0 0.25 0"/>
<feBlend mode="normal" in2="shape" result="effect1_innerShadow_47_533"/>
</filter>
<radialGradient id="paint0_radial_47_533" cx="0" cy="0" r="1" gradientUnits="userSpaceOnUse" gradientTransform="translate(74.6935 -6.55421) rotate(89.7765) scale(78.5548 104.506)">
<stop stop-color="#F37032"/>
<stop offset="1" stop-color="#F04C2F"/>
</radialGradient>
</defs>
</svg>
