<svg width="132" height="36" viewBox="0 0 132 36" fill="none" xmlns="http://www.w3.org/2000/svg">
<circle cx="114" cy="18" r="18" fill="#6D6D6D"/>
<path d="M114.707 24.2394C112.219 24.5599 110.249 24.2394 108.278 24.0257C106.308 23.812 105.686 23.1709 105.582 21.034C105.479 19.1107 105.375 17.0806 105.375 15.1574C105.375 12.6999 106.205 11.8451 108.59 11.5246C112.53 10.9903 116.47 11.3108 120.411 11.8451C121.551 11.9519 122.277 12.4862 122.485 13.6615C123.107 16.2258 123.107 18.897 122.796 21.5682C122.588 23.0641 121.448 23.812 119.996 24.0257C118.233 24.3463 116.263 24.3462 114.707 24.2394ZM112.219 21.2477C114.189 20.7134 115.848 19.645 117.404 18.1491C115.744 16.8669 114.085 16.0121 112.011 15.0505C112.011 17.2943 111.804 19.2176 112.219 21.2477Z" fill="white"/>
<circle cx="18" cy="18" r="18" fill="#6D6D6D"/>
<path d="M11.8832 20.4834C11.3287 19.929 10.7743 19.3745 10.3307 18.8201C9.77625 18.0438 8.66733 17.2676 10.2198 16.2695C10.6634 15.9369 10.3307 15.2715 10.2198 14.8279C9.88714 13.8299 9.77625 12.8319 9.77625 11.2794C11.2178 13.3864 12.6594 14.6062 14.7664 15.1606C15.4317 15.3824 16.0971 15.3824 16.8733 15.4933C18.204 15.6042 18.7585 14.9388 18.8694 13.6081C19.2021 10.1705 21.0872 9.06154 24.0813 10.8358C25.1902 11.5012 25.6338 10.5031 26.5209 10.3922C26.8536 11.2794 27.4081 12.1665 26.5209 13.1645C26.0774 13.6081 26.1883 14.2735 26.1883 14.9388C26.0774 20.1508 22.8615 24.4755 17.8714 26.028C16.3189 26.5825 14.6555 26.9152 12.8812 26.9152C11.4396 26.8043 10.1089 26.5825 9 25.1409C10.4416 24.9191 12.105 25.6954 13.103 24.032C12.4377 23.034 10.6634 22.7013 10.5525 21.0379C10.7743 20.4834 11.5505 21.0379 11.8832 20.4834Z" fill="white"/>
<circle cx="66" cy="18" r="18" fill="#6D6D6D"/>
<path d="M55.125 19.1148C57.2004 17.7941 58.7098 16.8507 60.3135 15.9074C64.0869 13.832 67.766 11.7566 71.4451 9.49252C72.8602 8.6435 73.2375 8.83214 73.2375 10.5302C73.1432 11.7566 72.9545 12.8886 72.7658 14.115C72.1998 17.6054 71.5395 21.0959 70.9735 24.5863C70.7848 25.624 70.4074 25.907 69.4641 25.341C68.9924 25.058 68.5207 24.9636 68.049 24.7749C65.5963 23.7372 65.3133 23.7372 63.5209 25.7183C63.1436 26.0956 63.0492 26.6617 62.2945 26.756C62.0115 24.9636 61.6342 23.3599 62.9549 21.7562C64.2756 20.0582 65.502 18.4544 66.917 16.7564C67.2944 16.2847 67.5774 15.813 67.766 15.247C65.5963 16.662 63.4266 18.1714 61.6342 20.0581C60.9738 20.8128 60.4078 20.9072 59.4645 20.5298C58.2381 20.0581 56.9174 19.6808 55.125 19.1148Z" fill="white"/>
</svg>
